<svg width="32" height="32" fill="none" xmlns="http://www.w3.org/2000/svg"><defs><clipPath id="clip41317_276"><rect id="Icon-Burger-menu" rx="-.5" width="31" height="31" transform="translate(.5 .5)" fill="#fff" fill-opacity="0"/></clipPath></defs><rect id="Icon-Burger-menu" rx="-.5" width="31" height="31" transform="translate(.5 .5)" fill="#FFF" fill-opacity="0"/><g clip-path="url('#clip41317_276')"><path id="Vector" d="M5.33 24h21.33c.74 0 1.34-.6 1.34-1.34 0-.73-.6-1.33-1.34-1.33H5.33c-.74 0-1.33.6-1.33 1.33C4 23.4 4.59 24 5.33 24Zm0-6.67h21.33c.74 0 1.34-.6 1.34-1.33 0-.74-.6-1.34-1.34-1.34H5.33c-.74 0-1.33.6-1.33 1.34 0 .73.59 1.33 1.33 1.33Zm0-9.33C4.59 8 4 8.59 4 9.33c0 .73.59 1.33 1.33 1.33h21.33c.74 0 1.34-.6 1.34-1.33C28 8.59 27.4 8 26.66 8H5.33Z" fill="#FFF" fill-opacity="1" fill-rule="nonzero"/></g></svg>