<svg width="32" height="32" fill="none" xmlns="http://www.w3.org/2000/svg"><defs><clipPath id="clip41317_275"><rect id="Icon-Phone-call" rx="-.5" width="31" height="31" transform="translate(4.5 .5)" fill="#fff" fill-opacity="0"/></clipPath><filter id="filter_41317_275_dd" x="0" y="0" width="32" height="32" filterUnits="userSpaceOnUse" color-interpolation-filters="sRGB"><feFlood flood-opacity="0" result="BackgroundImageFix"/><feColorMatrix in="SourceAlpha" values="0 0 0 0 0 0 0 0 0 0 0 0 0 0 0 0 0 0 127 0" result="hardAlpha"/><feOffset dy="4"/><feGaussianBlur stdDeviation="1.333"/><feComposite in2="hardAlpha" operator="out" k2="-1" k3="1"/><feColorMatrix values="0 0 0 0 0 0 0 0 0 0 0 0 0 0 0 0 0 0 0.25 0"/><feBlend in2="BackgroundImageFix" result="effect_dropShadow_1"/><feBlend in="SourceGraphic" in2="effect_dropShadow_1" result="shape"/></filter></defs><g filter="url('#filter_41317_275_dd')"><rect id="Icon-Phone-call" rx="-.5" width="31" height="31" transform="translate(4.5 .5)" fill="#FFF" fill-opacity="0"/><g clip-path="url('#clip41317_275')"><path id="Vector" d="M30.68 20.5c-1.64 0-3.23-.26-4.71-.74-.47-.16-.99-.05-1.35.32l-2.09 2.62c-3.78-1.8-7.31-5.2-9.19-9.1l2.6-2.22c.36-.37.47-.89.32-1.36-.49-1.48-.74-3.07-.74-4.71 0-.72-.61-1.31-1.32-1.31H9.58C8.86 4 8 4.31 8 5.31 8 17.7 18.3 28 30.68 28c.94 0 1.32-.84 1.32-1.58v-4.6c0-.72-.61-1.32-1.32-1.32Z" fill="#FFF" fill-opacity="1" fill-rule="nonzero"/></g></g></svg>